# xmcd
#
# Track frame offsets:
#	150
#	20230
#	38530
#	53765
#	67475
#	85715
#	107683
#	127533
#	145738
#	163458
#	182590
#	200815
#	225260
#
# Disc length: 3024 seconds
#
# Revision: 0
# Processed by: cddbd v1.5.1PL2 Copyright (c) Steve Scherf et al.
# Submitted via: dBpowerAMP V4.0
#
DISCID=ae0bce0d
DTITLE=Montgomery Gentry - My Town
DYEAR=2002
DGENRE=Country
TTITLE0=My Town
TTITLE1=Break My Heart Again
TTITLE2=Scarecrow
TTITLE3=Bad For Good
TTITLE4=Speed
TTITLE5=Hell Yeah
TTITLE6=Lomesome
TTITLE7=Why Do I Feel Like Running
TTITLE8=Free Fall
TTITLE9=Lie Before You Leave
TTITLE10=For The Money
TTITLE11=Good Clean Fun
TTITLE12=My Town {piano} 
EXTD=
EXTT0=
EXTT1=
EXTT2=
EXTT3=
EXTT4=
EXTT5=
EXTT6=
EXTT7=
EXTT8=
EXTT9=
EXTT10=
EXTT11=
EXTT12=
PLAYORDER=
